<?xml version="1.0" standalone="no"?>
<!DOCTYPE svg PUBLIC "-//W3C//DTD SVG 20010904//EN"
 "http://www.w3.org/TR/2001/REC-SVG-20010904/DTD/svg10.dtd">
<svg version="1.0" xmlns="http://www.w3.org/2000/svg"
 width="16.000000pt" height="16.000000pt" viewBox="0 0 16.000000 16.000000"
 preserveAspectRatio="xMidYMid meet">
<metadata>
Created by potrace 1.11, written by Peter Selinger 2001-2013
</metadata>
<g transform="translate(0.000000,16.000000) scale(0.002286,-0.002286)"
fill="#000000" stroke="none">
<path d="M3218 6995 c-2 -1 -39 -5 -83 -9 -723 -56 -1493 -377 -2039 -850 -83
-71 -231 -220 -291 -291 -27 -33 -55 -64 -62 -70 -23 -20 -161 -213 -222 -309
-191 -303 -349 -723 -440 -1166 -16 -80 -32 -165 -35 -190 -10 -86 -17 -135
-21 -165 -13 -91 -20 -236 -20 -445 0 -312 12 -445 71 -765 12 -68 64 -276 89
-355 87 -274 249 -590 348 -677 22 -19 45 -58 67 -109 154 -372 425 -729 765
-1010 397 -328 885 -532 1365 -571 197 -15 1026 -7 1175 12 17 2 62 7 100 10
127 12 161 15 275 30 388 51 791 156 1191 311 98 39 117 49 102 57 -41 23
-132 32 -433 42 -169 5 -192 8 -292 27 -61 11 -77 27 -30 29 15 0 34 2 42 4
128 28 168 46 305 138 50 34 149 90 220 124 72 35 137 68 145 73 8 5 38 21 65
36 246 131 604 424 781 639 27 33 55 66 62 73 6 7 42 56 78 108 101 145 200
327 264 484 12 30 26 64 30 75 121 296 201 681 204 990 3 244 -3 270 -33 125
-113 -565 -310 -1045 -578 -1408 -110 -150 -210 -261 -397 -438 -32 -31 -159
-136 -211 -175 -74 -56 -209 -148 -175 -119 73 62 113 108 98 110 -2 1 -21 3
-43 6 -22 3 -44 9 -48 13 -8 8 11 61 23 61 3 0 16 13 28 30 21 28 16 26 -90
-29 -147 -77 -302 -142 -463 -196 -123 -41 -328 -97 -405 -110 -19 -3 -51 -10
-70 -15 -65 -17 -336 -55 -455 -65 -38 -3 -86 -8 -105 -10 -176 -24 -918 -24
-1105 -1 -16 2 -59 7 -95 11 -108 11 -163 21 -265 46 -337 84 -637 296 -893
634 -49 64 -179 296 -149 265 8 -8 47 -55 86 -104 137 -173 321 -347 480 -456
36 -25 68 -47 71 -50 3 -4 41 -27 85 -52 153 -87 317 -164 309 -145 -3 7 -37
37 -76 67 -39 30 -76 60 -82 65 -6 6 -74 57 -151 114 -426 318 -587 501 -784
892 -133 265 -244 625 -276 900 -3 24 -7 55 -10 69 -8 47 -18 225 -18 340 0
111 12 339 18 350 2 3 6 33 10 65 3 33 8 67 10 75 3 8 6 29 9 45 12 71 17 95
41 190 32 128 29 116 63 215 39 110 55 150 99 235 212 410 637 770 1137 964
103 39 256 87 313 97 15 3 44 9 63 14 19 5 55 12 80 15 25 3 52 7 60 10 8 2
51 6 95 10 104 8 134 18 172 59 40 42 85 53 193 51 182 -5 310 -40 579 -160
157 -70 180 -78 240 -79 65 -1 69 -3 156 -65 113 -81 194 -149 267 -226 59
-61 118 -158 118 -192 0 -14 7 -19 28 -18 69 3 169 -47 246 -122 115 -112 237
-330 261 -467 4 -24 26 -64 61 -110 63 -81 117 -186 145 -284 26 -87 34 -291
15 -377 -71 -321 -307 -621 -676 -860 -94 -61 -265 -151 -366 -192 -43 -17
-52 -25 -61 -59 -13 -42 -11 -85 5 -153 28 -116 -52 -180 -480 -385 l-56 -27
33 -32 c46 -44 51 -76 19 -122 -14 -21 -24 -38 -22 -40 2 -1 57 24 123 56 110
55 289 132 650 285 376 158 594 302 846 557 42 42 80 77 84 77 12 0 -4 -50
-46 -142 -50 -108 -49 -132 5 -136 37 -3 42 0 160 120 133 135 145 149 227
258 190 255 332 587 369 863 6 45 13 95 16 111 6 35 6 325 0 381 -41 393 -164
724 -406 1089 -269 406 -657 760 -1096 1000 -300 164 -767 329 -1024 361 -30
4 -62 9 -70 10 -8 2 -44 6 -80 10 -36 4 -78 9 -95 12 -33 5 -511 13 -517 8z
m1182 -1155 c16 -13 20 -20 10 -19 -16 0 -50 22 -50 33 0 11 14 6 40 -14z
m1118 -2761 c-2 -5 -19 -20 -38 -31 l-35 -22 29 32 c29 32 51 42 44 21z m-113
-86 c-16 -14 -48 -42 -70 -62 -54 -49 -147 -121 -157 -121 -43 0 94 137 187
187 67 36 85 34 40 -4z m-4311 -478 c60 -149 79 -205 72 -212 -7 -7 -61 91
-96 174 -32 76 -62 188 -52 197 7 8 21 -20 76 -159z m-623 108 c12 -27 45
-118 74 -203 29 -85 64 -185 79 -221 14 -36 26 -69 26 -72 0 -16 -24 -5 -52
25 -60 64 -127 249 -152 413 -17 120 -10 138 25 58z m4599 -1482 c66 -18 9
-65 -120 -99 -77 -20 -146 -21 -207 -1 -62 20 -30 61 69 90 64 18 209 24 258
10z m-3580 -87 c127 -78 227 -169 263 -241 14 -26 28 -35 74 -48 32 -9 137
-56 233 -104 200 -101 345 -158 363 -143 14 12 79 3 71 -9 -3 -5 -19 -6 -37
-4 -31 5 -32 4 -32 -27 0 -31 -3 -33 -36 -36 -79 -7 -333 112 -596 278 -12 8
-23 26 -25 39 -2 16 -16 34 -38 48 -44 30 -178 125 -194 138 -104 90 -157 136
-186 163 l-35 33 45 -17 c25 -10 83 -41 130 -70z m3855 15 c-327 -143 -633
-228 -910 -254 -33 -3 -82 -7 -110 -10 -27 -3 -86 -7 -130 -10 -44 -2 -120 -7
-170 -11 -49 -3 -110 -7 -133 -9 -35 -2 -41 0 -30 9 26 23 138 53 359 95 85
17 170 32 189 35 19 3 76 12 125 21 50 9 104 18 120 21 17 2 66 11 110 19 83
14 149 26 175 29 8 2 29 5 45 9 17 3 47 9 67 11 58 9 321 66 326 71 3 3 12 5
21 5 9 -1 -15 -14 -54 -31z m-1836 -134 c12 -12 12 -19 3 -40 -25 -53 -141
-73 -404 -66 l-57 1 42 41 c52 52 93 70 177 76 36 3 66 6 67 7 1 1 37 0 80 -2
49 -2 83 -9 92 -17z m901 -412 c-3 -59 -239 -132 -427 -133 -62 0 -80 6 -94
31 -8 16 -5 21 18 30 28 11 94 22 188 34 124 14 280 37 284 41 7 7 31 4 31 -3z"/>
<path d="M3303 5782 c-11 -7 84 -28 252 -58 17 -3 59 -12 95 -20 36 -9 76 -18
90 -20 63 -12 189 -47 319 -89 204 -66 391 -146 725 -311 59 -30 111 -54 115
-54 12 0 -114 113 -184 164 -131 97 -208 140 -385 218 -151 67 -407 135 -615
163 -70 9 -399 15 -412 7z"/>
<path d="M2800 5718 c-25 -5 -72 -16 -105 -24 -33 -9 -71 -18 -85 -20 -49 -9
-236 -77 -310 -111 -41 -20 -100 -53 -130 -73 -53 -36 -121 -100 -107 -100 21
0 656 251 771 305 59 28 66 33 41 33 -16 0 -50 -4 -75 -10z"/>
</g>
</svg>
